<svg width="26" height="20" viewBox="0 0 26 20" fill="none" xmlns="http://www.w3.org/2000/svg">
<path d="M25.5 10.001C25.5 10.3986 25.3387 10.7798 25.0517 11.0609C24.7647 11.342 24.3754 11.5 23.9695 11.5H6.03759L12.7455 17.378C12.8966 17.5088 13.0198 17.6677 13.1081 17.8454C13.1963 18.023 13.2478 18.216 13.2596 18.4133C13.2715 18.6105 13.2433 18.8081 13.1769 18.9947C13.1105 19.1812 13.007 19.3531 12.8725 19.5004C12.738 19.6476 12.5751 19.7674 12.3932 19.8528C12.2113 19.9382 12.0139 19.9875 11.8124 19.9979C11.611 20.0083 11.4094 19.9796 11.2193 19.9135C11.0292 19.8473 10.8543 19.745 10.7047 19.6125L1.01128 11.1182C0.850453 10.9776 0.721767 10.8053 0.633657 10.6126C0.545547 10.4199 0.5 10.2111 0.5 10C0.5 9.78885 0.545547 9.58009 0.633657 9.38738C0.721767 9.19468 0.850453 9.02237 1.01128 8.88176L10.7047 0.387548C10.8543 0.254971 11.0292 0.152664 11.2193 0.0865121C11.4094 0.02036 11.611 -0.00833244 11.8124 0.00208506C12.0139 0.0125026 12.2113 0.061824 12.3932 0.147214C12.5751 0.232603 12.738 0.352376 12.8725 0.499643C13.007 0.64691 13.1105 0.818765 13.1769 1.00532C13.2433 1.19188 13.2715 1.38947 13.2596 1.58671C13.2478 1.78395 13.1963 1.97697 13.1081 2.15464C13.0198 2.33232 12.8966 2.49116 12.7455 2.62203L6.03759 8.50202H23.9695C24.3754 8.50202 24.7647 8.65995 25.0517 8.94106C25.3387 9.22217 25.5 9.60344 25.5 10.001V10.001Z" fill="white"/>
</svg>
