<svg width="12" height="12" viewBox="0 0 12 12" fill="none" xmlns="http://www.w3.org/2000/svg">
<path d="M5.88 0.119995C4.32053 0.119995 2.82493 0.739494 1.72221 1.84221C0.619498 2.94492 0 4.44052 0 6C0 7.55947 0.619498 9.05507 1.72221 10.1578C2.82493 11.2605 4.32053 11.88 5.88 11.88C7.43947 11.88 8.93507 11.2605 10.0378 10.1578C11.1405 9.05507 11.76 7.55947 11.76 6C11.76 4.44052 11.1405 2.94492 10.0378 1.84221C8.93507 0.739494 7.43947 0.119995 5.88 0.119995ZM9.2323 8.1427L8.022 9.353L5.88 7.2103L3.7373 9.35229L2.527 8.142L4.6704 6L2.5277 3.8573L3.738 2.6477L5.88 4.7897L8.0227 2.647L9.233 3.8573L7.0896 6L9.2323 8.1427Z" fill="#DD4828"/>
</svg>
