<svg width="24" height="24" viewBox="0 0 24 24" fill="none" xmlns="http://www.w3.org/2000/svg">
<circle cx="12" cy="12" r="7" fill="#F0F2F5"/>
<rect x="11.3691" width="1.26316" height="3.15789" rx="0.631579" fill="#F0F2F5"/>
<rect x="24" y="11.3682" width="1.26316" height="3.15789" rx="0.631579" transform="rotate(90 24 11.3682)" fill="#F0F2F5"/>
<rect x="21.0215" y="20.1279" width="1.26316" height="3.15789" rx="0.631579" transform="rotate(135 21.0215 20.1279)" fill="#F0F2F5"/>
<rect x="20.127" y="3.15723" width="1.26316" height="3.15789" rx="0.631579" transform="rotate(45 20.127 3.15723)" fill="#F0F2F5"/>
<rect x="11.3691" y="20.8418" width="1.26316" height="3.15789" rx="0.631579" fill="#F0F2F5"/>
<rect x="3.1582" y="11.3682" width="1.26316" height="3.15789" rx="0.631579" transform="rotate(90 3.1582 11.3682)" fill="#F0F2F5"/>
<rect x="6.2832" y="5.39062" width="1.26316" height="3.15789" rx="0.631579" transform="rotate(135 6.2832 5.39062)" fill="#F0F2F5"/>
<rect x="5.39258" y="17.8955" width="1.26316" height="3.15789" rx="0.631579" transform="rotate(45 5.39258 17.8955)" fill="#F0F2F5"/>
</svg>
