<svg width="179" height="18" viewBox="0 0 179 18" fill="none" xmlns="http://www.w3.org/2000/svg">
<path d="M0.350342 16.6431H4.07418V9.96279C4.07418 8.21425 4.97149 7.51931 6.87828 7.51931H7.01288V3.77564C4.85933 3.77564 4.20878 4.91892 3.84985 5.59143V4.20157H0.350342V16.6431Z" fill="white"/>
<path d="M21.2719 4.20157H17.548V5.52418C17.0545 4.762 15.9104 3.77564 13.8691 3.77564C10.549 3.77564 7.61032 6.3312 7.61032 10.4111C7.61032 13.9755 9.9209 17.069 13.8691 17.069C15.3272 17.069 16.8751 16.5086 17.548 15.2981V16.6431H21.2719V4.20157ZM11.3342 10.456C11.3342 9.04368 12.2763 7.25031 14.4075 7.25031C15.9777 7.25031 16.8302 8.12458 17.234 8.97643C17.4807 9.49203 17.5929 10.0525 17.548 10.6129C17.5032 11.1733 17.3461 11.7113 17.0321 12.2045C16.561 12.9667 15.7534 13.5944 14.4299 13.5944C12.1866 13.5944 11.3342 11.6217 11.3342 10.4784V10.456Z" fill="white"/>
<path d="M23.9885 16.6431H27.7124V10.03C27.7124 9.64895 27.7124 8.97643 27.9816 8.37117C28.2508 7.7659 28.7667 7.27272 29.821 7.27272C30.7632 7.27272 31.2119 7.74348 31.4586 8.32633C31.683 8.88676 31.683 9.53686 31.683 9.87312V16.6431H35.4068V9.8507C35.4068 9.49203 35.4068 8.86435 35.676 8.30391C35.9228 7.74348 36.4387 7.27272 37.4706 7.27272C38.4352 7.27272 38.9063 7.69865 39.1306 8.2815C39.3774 8.84193 39.3774 9.51444 39.3774 10.03V16.6431H43.1012V9.8507C43.1012 7.09338 42.9218 6.26395 41.7553 5.031C40.7458 3.97739 39.355 3.77564 38.4801 3.77564C37.179 3.77564 36.1695 4.2464 35.4292 4.91892C35.0703 5.23276 34.7787 5.61385 34.5319 5.99494C34.3076 5.56902 34.0608 5.23276 33.7916 4.96375C32.8719 3.99981 31.7951 3.77564 30.9427 3.77564C29.6416 3.77564 28.7667 4.20157 28.2283 4.64991C27.6899 5.07584 27.4656 5.52418 27.4656 5.52418V4.20157H23.9885V16.6431Z" fill="white"/>
<path d="M45.7203 2.87895H49.4441V0.0543823H45.7203V2.87895ZM45.7203 16.6431H49.4441V4.20157H45.7203V16.6431Z" fill="white"/>
<path d="M52.1166 16.6431H55.8404V9.96279C55.8404 8.21425 56.7377 7.51931 58.6445 7.51931H58.7791V3.77564C56.6256 3.77564 55.975 4.91892 55.6161 5.59143V4.20157H52.1166V16.6431Z" fill="white"/>
<path d="M59.3766 10.4111C59.3766 13.4599 61.5526 17.0242 66.084 17.0242C70.6154 17.0242 72.7914 13.4599 72.7914 10.4111C72.7914 7.36239 70.6154 3.79806 66.084 3.79806C61.5526 3.79806 59.3766 7.36239 59.3766 10.3887V10.4111ZM63.1004 10.4111C63.1004 8.59534 64.4688 7.27272 66.084 7.27272C67.6991 7.27272 69.0675 8.59534 69.0675 10.4111C69.0675 12.2269 67.6991 13.5495 66.084 13.5495C64.4688 13.5495 63.1004 12.2269 63.1004 10.4335V10.4111Z" fill="white"/>
<path d="M78.5899 12.8322H74.709V16.6431H78.5899V12.8322Z" fill="white"/>
<path d="M94.5946 4.20157H90.8708V5.52418C90.3773 4.762 89.2332 3.77564 87.1918 3.77564C83.8718 3.77564 80.9331 6.3312 80.9331 10.4111C80.9331 13.9755 83.2437 17.069 87.1918 17.069C88.65 17.069 90.1978 16.5086 90.8708 15.2981V16.6431H94.5946V4.20157ZM84.6569 10.456C84.6569 9.04368 85.5991 7.25031 87.7302 7.25031C89.3005 7.25031 90.1529 8.12458 90.5567 8.97643C90.8035 9.49203 90.9157 10.0525 90.8708 10.6129C90.8259 11.1733 90.6689 11.7113 90.3548 12.2045C89.8837 12.9667 89.0762 13.5944 87.7526 13.5944C85.5094 13.5944 84.6569 11.6217 84.6569 10.4784V10.456Z" fill="white"/>
<path d="M97.3113 16.6431H101.035V9.87312C101.035 8.59534 101.327 7.27272 103.166 7.27272C104.826 7.27272 105.118 8.48325 105.118 9.8507V16.6431H108.842V8.86434C108.842 7.18305 108.415 3.77564 104.221 3.77564C102 3.77564 101.215 4.91892 100.788 5.52418V4.20157H97.3113V16.6431Z" fill="white"/>
<path d="M124.451 0.0543823H120.727V3.91014V5.25517C120.324 4.85166 119.269 3.77564 117.071 3.77564C113.908 3.77564 110.902 6.17428 110.902 10.3887C110.902 14.1324 113.369 17.0466 117.138 17.0466C119.651 17.0466 120.548 15.8137 120.907 15.2981V16.6431H124.451V0.0543823ZM114.626 10.3663C114.626 8.9316 115.635 7.25031 117.789 7.25031C118.664 7.25031 119.449 7.56415 120.01 8.12458C120.57 8.66259 120.929 9.42477 120.929 10.3215C120.974 11.2406 120.638 12.0476 120.054 12.6304C119.471 13.2133 118.641 13.572 117.744 13.572C115.994 13.572 114.626 12.2942 114.626 10.3887V10.3663Z" fill="white"/>
<path d="M127.126 16.6431H130.85V9.96279C130.85 8.21425 131.747 7.51931 133.654 7.51931H133.789V3.77564C131.635 3.77564 130.985 4.91892 130.626 5.59143V4.20157H127.126V16.6431Z" fill="white"/>
<path d="M148.048 4.20157H144.324V5.52418C143.83 4.762 142.686 3.77564 140.645 3.77564C137.325 3.77564 134.386 6.3312 134.386 10.4111C134.386 13.9755 136.697 17.069 140.645 17.069C142.103 17.069 143.651 16.5086 144.324 15.2981V16.6431H148.048V4.20157ZM138.11 10.456C138.11 9.04368 139.052 7.25031 141.183 7.25031C142.754 7.25031 143.606 8.12458 144.01 8.97643C144.257 9.49203 144.369 10.0525 144.324 10.6129C144.279 11.1733 144.122 11.7113 143.808 12.2045C143.337 12.9667 142.529 13.5944 141.206 13.5944C138.962 13.5944 138.11 11.6217 138.11 10.4784V10.456Z" fill="white"/>
<path d="M163.731 0.0543823H160.007V3.91014V5.25517C159.603 4.85166 158.549 3.77564 156.35 3.77564C153.187 3.77564 150.181 6.17428 150.181 10.3887C150.181 14.1324 152.649 17.0466 156.417 17.0466C158.93 17.0466 159.827 15.8137 160.186 15.2981V16.6431H163.731V0.0543823ZM153.905 10.3663C153.905 8.9316 154.914 7.25031 157.068 7.25031C157.943 7.25031 158.728 7.56415 159.289 8.12458C159.85 8.66259 160.209 9.42477 160.209 10.3215C160.253 11.2406 159.917 12.0476 159.334 12.6304C158.75 13.2133 157.92 13.572 157.023 13.572C155.273 13.572 153.905 12.2942 153.905 10.3887V10.3663Z" fill="white"/>
<path d="M178.743 11.7113C179.035 9.42478 178.564 7.42964 176.994 5.74835C175.827 4.51541 174.19 3.77564 172.283 3.77564C168.492 3.77564 165.755 6.9813 165.755 10.456C165.755 14.1548 168.783 17.0466 172.35 17.0466C173.629 17.0466 174.863 16.6655 175.895 15.9258C176.949 15.2084 177.824 14.1324 178.429 12.7425H174.616C174.167 13.3926 173.539 13.9082 172.35 13.9082C170.892 13.9082 169.636 13.0339 169.479 11.7113H178.743ZM169.524 8.88676C169.613 8.30391 170.376 6.91405 172.305 6.91405C174.234 6.91405 174.997 8.30391 175.087 8.88676H169.524Z" fill="white"/>
</svg>
