<?xml version="1.0" encoding="utf-8"?>
<!-- Generator: Adobe Illustrator 21.0.0, SVG Export Plug-In . SVG Version: 6.00 Build 0)  -->
<svg version="1.1" id="Capa_1" xmlns="http://www.w3.org/2000/svg" xmlns:xlink="http://www.w3.org/1999/xlink" x="0px" y="0px"
	 viewBox="0 0 21 20" style="enable-background:new 0 0 21 20;" xml:space="preserve">
<style type="text/css">
	.st0{fill:#FFFFFF;}
</style>
<path class="st0" d="M11.2,20H9.8c-0.3,0-0.6-0.2-0.6-0.5L9,19c-0.4-0.1-0.8-0.4-0.8-0.9v-0.6c0-0.3,0.2-0.6,0.6-0.6h3.4
	c0.3,0,0.5,0.3,0.5,0.6v0.6c0,0.5-0.3,0.8-0.8,0.9l-0.1,0.5C11.7,19.8,11.5,20,11.2,20z"/>
<title>Recurso 2</title>
<title>Recurso 1</title>
<path class="st0" d="M10.5,4.4C7.7,4.5,5.4,6.8,5.4,9.6c0,1.3,0.5,2.5,1.4,3.4c0.5,0.6,0.9,1.3,1,2c0.1,0.6,0.7,1.1,1.3,1.1h2.8
	c0.6,0,1.2-0.5,1.3-1.1c0.1-0.8,0.5-1.5,1-2c0.9-0.9,1.4-2.2,1.4-3.5C15.5,6.7,13.3,4.5,10.5,4.4z M13.3,12.3
	c-0.7,0.7-1.1,1.6-1.3,2.6c0,0.1-0.1,0.2-0.2,0.2h-0.9v-3.3l1.2-1.2c0.2-0.2,0.2-0.6,0-0.8s-0.6-0.2-0.8,0l-0.9,0.9L9.5,9.8
	c-0.2-0.2-0.6-0.2-0.8,0s-0.2,0.6,0,0.8l1.2,1.2v3.3H9c-0.1,0-0.2-0.1-0.2-0.2c-0.2-1-0.6-1.9-1.3-2.6c-0.7-0.7-1.1-1.7-1.1-2.7
	c0-2.2,1.8-4,4-4.1c2.2,0,4,1.8,4,4l0,0C14.4,10.5,14,11.5,13.3,12.3z"/>
</svg>
