<?xml version="1.0" encoding="utf-8"?>
<!-- Generator: Adobe Illustrator 21.0.0, SVG Export Plug-In . SVG Version: 6.00 Build 0)  -->
<svg version="1.1" id="Capa_1" xmlns="http://www.w3.org/2000/svg" xmlns:xlink="http://www.w3.org/1999/xlink" x="0px" y="0px"
	 viewBox="0 0 47 20" style="enable-background:new 0 0 47 20;" xml:space="preserve">
<style type="text/css">
	.st0{fill:#FFFFFF;}
</style>
<path class="st0" d="M37.2,20h-1.4c-0.3,0-0.6-0.2-0.6-0.5L35,19c-0.4-0.1-0.8-0.4-0.8-0.9v-0.6c0-0.3,0.2-0.6,0.6-0.6h3.4
	c0.3,0,0.5,0.3,0.5,0.6v0.6c0,0.5-0.3,0.8-0.8,0.9l-0.1,0.5C37.7,19.8,37.5,20,37.2,20z"/>
<path class="st0" d="M4.9,7.6c0.6,0,1.2,0.1,1.7,0.3c0.5,0.2,1,0.5,1.3,0.9c0.4,0.4,0.7,0.8,0.9,1.3s0.3,1.1,0.3,1.7S9,13,8.8,13.5
	s-0.5,1-0.9,1.3c-0.4,0.4-0.8,0.7-1.3,0.9C6.1,15.9,5.5,16,4.9,16s-1.2-0.1-1.7-0.3s-1-0.5-1.3-0.9C1.5,14.4,1.2,14,1,13.5
	s-0.3-1.1-0.3-1.7s0.1-1.2,0.3-1.7s0.5-0.9,0.9-1.3c0.4-0.4,0.8-0.7,1.3-0.9C3.7,7.7,4.3,7.6,4.9,7.6z M4.9,13.7
	c0.2,0,0.5,0,0.7-0.1s0.4-0.2,0.6-0.4s0.3-0.4,0.4-0.6c0.1-0.2,0.1-0.5,0.1-0.8s0-0.6-0.1-0.8s-0.2-0.4-0.4-0.6
	C6,10.2,5.8,10.1,5.6,10C5.4,9.9,5.1,9.9,4.9,9.9s-0.5,0-0.7,0.1s-0.4,0.2-0.6,0.4c-0.2,0.2-0.3,0.4-0.4,0.6
	c-0.1,0.2-0.1,0.5-0.1,0.8s0,0.6,0.1,0.8s0.2,0.4,0.4,0.6c0.2,0.2,0.4,0.3,0.6,0.4S4.6,13.7,4.9,13.7z"/>
<path class="st0" d="M14.2,4.1c0.3,0,0.6,0,0.9,0.1c0.3,0.1,0.5,0.1,0.8,0.2l-0.7,2.1c-0.1-0.1-0.2-0.1-0.4-0.1c-0.1,0-0.3,0-0.4,0
	c-0.3,0-0.5,0.1-0.7,0.3c-0.1,0.2-0.2,0.4-0.2,0.7v0.5h1.9v2h-1.9v5.8h-2.4V9.9H9.7v-2h1.4V7.3c0-1,0.3-1.8,0.9-2.4
	C12.5,4.4,13.3,4.1,14.2,4.1z"/>
<path class="st0" d="M20.5,4.1c0.3,0,0.6,0,0.9,0.1s0.5,0.1,0.8,0.2l-0.7,2.1c-0.1-0.1-0.2-0.1-0.4-0.1c-0.1,0-0.3,0-0.4,0
	c-0.3,0-0.5,0.1-0.7,0.3c-0.1,0.2-0.2,0.4-0.2,0.7v0.5h1.9v2h-1.9v5.8h-2.4V9.9H16v-2h1.4V7.3c0-1,0.3-1.8,0.9-2.4
	C18.8,4.4,19.6,4.1,20.5,4.1z"/>
<title>Recurso 2</title>
<title>Recurso 1</title>
<path class="st0" d="M36.5,4.5c-2.8,0.1-5.1,2.4-5.1,5.2c0,1.3,0.5,2.5,1.4,3.4c0.5,0.6,0.9,1.3,1,2c0.1,0.6,0.7,1.1,1.3,1.1h2.8
	c0.6,0,1.2-0.5,1.3-1.1c0.1-0.8,0.5-1.5,1-2c0.9-0.9,1.4-2.2,1.4-3.5C41.5,6.8,39.3,4.6,36.5,4.5z M39.3,12.4
	C38.6,13.1,38.2,14,38,15c0,0.1-0.1,0.2-0.2,0.2h-0.9v-3.3l1.2-1.2c0.2-0.2,0.2-0.6,0-0.8c-0.2-0.2-0.6-0.2-0.8,0l-0.9,0.9l-0.9-0.9
	c-0.2-0.2-0.6-0.2-0.8,0c-0.2,0.2-0.2,0.6,0,0.8l1.2,1.2v3.3H35c-0.1,0-0.2-0.1-0.2-0.2c-0.2-1-0.6-1.9-1.3-2.6
	c-0.7-0.7-1.1-1.7-1.1-2.7c0-2.2,1.8-4,4-4.1c2.2,0,4,1.8,4,4h0C40.4,10.6,40,11.6,39.3,12.4z"/>
</svg>
