<?xml version="1.0" encoding="utf-8"?>
<!-- Generator: Adobe Illustrator 21.0.0, SVG Export Plug-In . SVG Version: 6.00 Build 0)  -->
<svg version="1.1" id="Capa_1" xmlns="http://www.w3.org/2000/svg" xmlns:xlink="http://www.w3.org/1999/xlink" x="0px" y="0px"
	 viewBox="0 0 21 20" style="enable-background:new 0 0 21 20;" xml:space="preserve">
<style type="text/css">
	.st0{fill:#FFFFFF;}
	.st1{fill:#EFCE43;}
	.st2{fill:none;stroke:#EFCE43;stroke-linecap:round;stroke-miterlimit:10;}
</style>
<path class="st0" d="M11.2,20H9.8c-0.3,0-0.6-0.2-0.6-0.5L9,19c-0.4-0.1-0.8-0.4-0.8-0.9v-0.6c0-0.3,0.2-0.6,0.6-0.6h3.4
	c0.3,0,0.5,0.3,0.5,0.6v0.6c0,0.5-0.3,0.8-0.8,0.9l-0.1,0.5C11.7,19.8,11.5,20,11.2,20z"/>
<path class="st1" d="M1.5,10.1h1.9c0.3,0,0.5-0.2,0.5-0.5C4,9.2,3.8,9,3.5,9H1.6C1.3,9,1,9.2,1,9.5S1.2,10.1,1.5,10.1z"/>
<path class="st1" d="M5.9,14.1c-0.2-0.2-0.5-0.2-0.8,0l-1.4,1.4c-0.2,0.2-0.2,0.6,0,0.8c0.1,0.1,0.2,0.2,0.4,0.2
	c0.1,0,0.3-0.1,0.4-0.2l1.4-1.4C6.1,14.7,6.1,14.3,5.9,14.1z"/>
<path class="st1" d="M5.1,4.9C5.2,5,5.3,5.1,5.5,5.1c0.1,0,0.3-0.1,0.4-0.2c0.2-0.2,0.2-0.6,0-0.8L4.5,2.7c-0.2-0.2-0.6-0.2-0.8,0
	c-0.2,0.2-0.2,0.6,0,0.8L5.1,4.9z"/>
<path class="st1" d="M10.5,3C10.8,3,11,2.8,11,2.5v-2C11,0.2,10.8,0,10.5,0S10,0.2,10,0.5v1.9C10,2.8,10.2,3,10.5,3z"/>
<path class="st1" d="M15.5,5.1c0.1,0,0.3-0.1,0.4-0.2l1.4-1.4c0.2-0.2,0.2-0.6,0-0.8s-0.6-0.2-0.8,0l-1.4,1.4
	c-0.2,0.2-0.2,0.6,0,0.8C15.2,5,15.4,5.1,15.5,5.1z"/>
<path class="st1" d="M19.5,9h-1.9C17.2,9,17,9.2,17,9.5s0.2,0.5,0.5,0.5h1.9c0.3,0,0.5-0.2,0.5-0.5C20.1,9.2,19.8,9,19.5,9z"/>
<path class="st1" d="M15.9,14.1c-0.2-0.2-0.6-0.2-0.8,0s-0.2,0.6,0,0.8l1.4,1.4c0.1,0.1,0.2,0.2,0.4,0.2c0.1,0,0.3-0.1,0.4-0.2
	c0.2-0.2,0.2-0.6,0-0.8L15.9,14.1z"/>
<g>
	<path class="st2" d="M9.2,10.1l1.3,1.2v3.6 M11.8,10.1l-1.3,1.2v3.6"/>
	<path class="st0" d="M10.5,4.4C7.7,4.5,5.4,6.8,5.4,9.6c0,1.3,0.5,2.5,1.4,3.4c0.5,0.6,0.9,1.3,1,2c0.1,0.6,0.7,1.1,1.3,1.1h2.8
		c0.6,0,1.2-0.5,1.3-1.1c0.1-0.8,0.5-1.5,1-2c0.9-0.9,1.4-2.2,1.4-3.5C15.6,6.7,13.3,4.4,10.5,4.4z M10,15H9.1
		c-0.1,0-0.2-0.1-0.2-0.2c-0.2-1-0.6-1.9-1.3-2.6s-1.1-1.7-1.1-2.7c0-2.2,1.8-4,4-4.1c2.2,0,4,1.8,4,4l0,0c0,1-0.5,2-1.2,2.8
		c-0.7,0.7-1.1,1.6-1.3,2.6c0,0.2,0,0.2-0.2,0.2h-0.9C10.9,15,10,15,10,15z"/>
</g>
</svg>
