<?xml version="1.0" encoding="utf-8"?>
<!-- Generator: Adobe Illustrator 21.0.0, SVG Export Plug-In . SVG Version: 6.00 Build 0)  -->
<svg version="1.1" id="Capa_1" xmlns="http://www.w3.org/2000/svg" xmlns:xlink="http://www.w3.org/1999/xlink" x="0px" y="0px"
	 viewBox="0 0 47 20" style="enable-background:new 0 0 47 20;" xml:space="preserve">
<style type="text/css">
	.st0{fill:#FFFFFF;}
	.st1{fill:#EFCE43;}
	.st2{fill:none;stroke:#EFCE43;stroke-linecap:round;stroke-miterlimit:10;}
</style>
<path class="st0" d="M37.2,20h-1.4c-0.3,0-0.6-0.2-0.6-0.5L35,19c-0.4-0.1-0.8-0.4-0.8-0.9v-0.6c0-0.3,0.2-0.6,0.6-0.6h3.4
	c0.3,0,0.5,0.3,0.5,0.6v0.6c0,0.5-0.3,0.8-0.8,0.9l-0.1,0.5C37.7,19.8,37.5,20,37.2,20z"/>
<path class="st1" d="M27.5,10.1h1.9c0.3,0,0.5-0.2,0.5-0.5C30,9.2,29.8,9,29.5,9h-1.9C27.3,9,27,9.2,27,9.5S27.2,10.1,27.5,10.1z"/>
<path class="st1" d="M31.9,14.1c-0.2-0.2-0.5-0.2-0.8,0l-1.4,1.4c-0.2,0.2-0.2,0.6,0,0.8c0.1,0.1,0.2,0.2,0.4,0.2
	c0.1,0,0.3-0.1,0.4-0.2l1.4-1.4C32.1,14.7,32.1,14.3,31.9,14.1z"/>
<path class="st1" d="M31.1,4.9c0.1,0.1,0.2,0.2,0.4,0.2c0.1,0,0.3-0.1,0.4-0.2c0.2-0.2,0.2-0.6,0-0.8l-1.4-1.4
	c-0.2-0.2-0.6-0.2-0.8,0c-0.2,0.2-0.2,0.6,0,0.8L31.1,4.9z"/>
<path class="st1" d="M36.5,3C36.8,3,37,2.8,37,2.5v-2C37,0.2,36.8,0,36.5,0S36,0.2,36,0.5v1.9C36,2.8,36.2,3,36.5,3z"/>
<path class="st1" d="M41.5,5.1c0.1,0,0.3-0.1,0.4-0.2l1.4-1.4c0.2-0.2,0.2-0.6,0-0.8s-0.6-0.2-0.8,0l-1.4,1.4
	c-0.2,0.2-0.2,0.6,0,0.8C41.2,5,41.4,5.1,41.5,5.1z"/>
<path class="st1" d="M45.5,9h-1.9C43.2,9,43,9.2,43,9.5s0.2,0.5,0.5,0.5h1.9c0.3,0,0.5-0.2,0.5-0.5C46.1,9.2,45.8,9,45.5,9z"/>
<path class="st1" d="M41.9,14.1c-0.2-0.2-0.6-0.2-0.8,0s-0.2,0.6,0,0.8l1.4,1.4c0.1,0.1,0.2,0.2,0.4,0.2c0.1,0,0.3-0.1,0.4-0.2
	c0.2-0.2,0.2-0.6,0-0.8L41.9,14.1z"/>
<path class="st0" d="M4.9,7.6c0.6,0,1.2,0.1,1.7,0.3c0.5,0.2,1,0.5,1.3,0.9c0.4,0.4,0.7,0.8,0.9,1.3s0.3,1.1,0.3,1.7S9,13,8.8,13.5
	s-0.5,1-0.9,1.3c-0.4,0.4-0.8,0.7-1.3,0.9S5.5,16,4.9,16s-1.1-0.1-1.7-0.3c-0.5-0.2-1-0.5-1.3-0.9C1.5,14.4,1.2,14,1,13.5
	c-0.2-0.6-0.3-1.1-0.3-1.7s0.1-1.2,0.3-1.7s0.5-0.9,0.9-1.3s0.8-0.7,1.3-0.9C3.8,7.7,4.3,7.6,4.9,7.6z M4.9,13.7
	c0.2,0,0.5,0,0.7-0.1s0.4-0.2,0.6-0.4s0.3-0.4,0.4-0.6c0.1-0.2,0.1-0.5,0.1-0.8c0-0.3,0-0.6-0.1-0.8s-0.2-0.4-0.4-0.6
	C6,10.2,5.8,10.1,5.6,10C5.4,9.9,5.2,9.9,4.9,9.9s-0.5,0-0.7,0.1c-0.2,0.1-0.4,0.2-0.6,0.4S3.3,10.8,3.2,11
	c-0.1,0.2-0.1,0.5-0.1,0.8s0,0.6,0.1,0.8s0.2,0.4,0.4,0.6c0.2,0.2,0.4,0.3,0.6,0.4S4.7,13.7,4.9,13.7z"/>
<path class="st0" d="M12,8.9h0.1c0.5-0.8,1.3-1.2,2.4-1.2c1,0,1.7,0.3,2.2,0.9c0.5,0.6,0.7,1.5,0.7,2.5v4.6H15v-4.4
	c0-0.4-0.1-0.8-0.3-1c-0.2-0.3-0.5-0.4-0.9-0.4c-0.5,0-1,0.2-1.2,0.6c-0.3,0.4-0.4,1-0.4,1.6v3.6H9.7V7.9h2.2L12,8.9L12,8.9z"/>
<g>
	<path class="st2" d="M35.2,10.1l1.3,1.2v3.6 M37.8,10.1l-1.3,1.2v3.6"/>
	<path class="st0" d="M36.5,4.4c-2.8,0.1-5.1,2.4-5.1,5.2c0,1.3,0.5,2.5,1.4,3.4c0.5,0.6,0.9,1.3,1,2c0.1,0.6,0.7,1.1,1.3,1.1h2.8
		c0.6,0,1.2-0.5,1.3-1.1c0.1-0.8,0.5-1.5,1-2c0.9-0.9,1.4-2.2,1.4-3.5C41.6,6.7,39.3,4.4,36.5,4.4z M36,15h-0.9
		c-0.1,0-0.2-0.1-0.2-0.2c-0.2-1-0.6-1.9-1.3-2.6s-1.1-1.7-1.1-2.7c0-2.2,1.8-4,4-4.1c2.2,0,4,1.8,4,4l0,0c0,1-0.5,2-1.2,2.8
		c-0.7,0.7-1.1,1.6-1.3,2.6c0,0.2,0,0.2-0.2,0.2h-0.9H36z"/>
</g>
</svg>
