<svg width="60" height="60" viewBox="0 0 60 60" fill="none" xmlns="http://www.w3.org/2000/svg">
<circle cx="30" cy="30" r="30" fill="#0055FF"/>
<path d="M45.6806 16.2158V18.1785C42.9352 19.1932 40.7837 20.7954 39.2262 22.9851C37.6687 25.1481 36.8899 27.4045 36.8899 29.7544C36.8899 30.2618 36.9691 30.6356 37.1275 30.876C37.2331 31.0362 37.3519 31.1163 37.4839 31.1163C37.6159 31.1163 37.8139 31.0228 38.0779 30.8359C38.9226 30.2217 39.9918 29.9146 41.2853 29.9146C42.79 29.9146 44.1231 30.5422 45.2847 31.7972C46.4462 33.0256 47.027 34.4943 47.027 36.2033C47.027 37.9924 46.3538 39.5679 45.0075 40.9298C43.6875 42.2916 42.0772 42.9726 40.1765 42.9726C37.9591 42.9726 36.0452 42.0513 34.4349 40.2088C32.8246 38.3663 32.0194 35.8962 32.0194 32.7986C32.0194 29.1936 33.1149 25.9625 35.306 23.1053C37.4971 20.248 40.9553 17.9515 45.6806 16.2158ZM26.6341 16.2158V18.1785C23.8887 19.1932 21.7372 20.7954 20.1797 22.9851C18.6222 25.1481 17.8434 27.4045 17.8434 29.7544C17.8434 30.2618 17.9226 30.6356 18.081 30.876C18.1866 31.0362 18.3054 31.1163 18.4374 31.1163C18.5694 31.1163 18.7674 31.0228 19.0314 30.8359C19.8761 30.2217 20.9452 29.9146 22.2388 29.9146C23.7435 29.9146 25.0766 30.5422 26.2381 31.7972C27.3997 33.0256 27.9804 34.4943 27.9804 36.2033C27.9804 37.9924 27.3073 39.5679 25.961 40.9298C24.641 42.2916 23.0307 42.9726 21.13 42.9726C18.9126 42.9726 16.9987 42.0513 15.3884 40.2088C13.7781 38.3663 12.9729 35.8962 12.9729 32.7986C12.9729 29.1936 14.0684 25.9625 16.2595 23.1053C18.4506 20.248 21.9088 17.9515 26.6341 16.2158Z" fill="white"/>
</svg>
